<svg xmlns="http://www.w3.org/2000/svg" width="80" height="80" viewBox="0 0 80 80">
  <g fill="none" fill-rule="evenodd" transform="translate(0 -6)">
    <path fill="#5C9CF7" d="M36.7142857,69.1428571 L36.7142857,16.5714286 C36.7142857,16.0922595 36.5602694,15.6986623 36.2522321,15.390625 C35.9441949,15.0825877 35.5505976,14.9285714 35.0714286,14.9285714 L10.4285714,14.9285714 C9.94940237,14.9285714 9.55580511,15.0825877 9.24776786,15.390625 C8.9397306,15.6986623 8.78571429,16.0922595 8.78571429,16.5714286 L8.78571429,69.1428571 C8.78571429,69.6220262 8.9397306,70.0156235 9.24776786,70.3236607 C9.55580511,70.631698 9.94940237,70.7857143 10.4285714,70.7857143 L35.0714286,70.7857143 C35.5505976,70.7857143 35.9441949,70.631698 36.2522321,70.3236607 C36.5602694,70.0156235 36.7142857,69.6220262 36.7142857,69.1428571 Z M71.2142857,49.4285714 L71.2142857,16.5714286 C71.2142857,16.0922595 71.0602694,15.6986623 70.7522321,15.390625 C70.4441949,15.0825877 70.0505976,14.9285714 69.5714286,14.9285714 L44.9285714,14.9285714 C44.4494024,14.9285714 44.0558051,15.0825877 43.7477679,15.390625 C43.4397306,15.6986623 43.2857143,16.0922595 43.2857143,16.5714286 L43.2857143,49.4285714 C43.2857143,49.9077405 43.4397306,50.3013377 43.7477679,50.609375 C44.0558051,50.9174123 44.4494024,51.0714286 44.9285714,51.0714286 L69.5714286,51.0714286 C70.0505976,51.0714286 70.4441949,50.9174123 70.7522321,50.609375 C71.0602694,50.3013377 71.2142857,49.9077405 71.2142857,49.4285714 Z M79.4285714,10 L79.4285714,82.2857143 C79.4285714,83.1755997 79.1034259,83.9456813 78.453125,84.5959821 C77.8028241,85.246283 77.0327425,85.5714286 76.1428571,85.5714286 L3.85714286,85.5714286 C2.96725746,85.5714286 2.19717587,85.246283 1.546875,84.5959821 C0.896574129,83.9456813 0.571428571,83.1755997 0.571428571,82.2857143 L0.571428571,10 C0.571428571,9.1101146 0.896574129,8.34003301 1.546875,7.68973214 C2.19717587,7.03943127 2.96725746,6.71428571 3.85714286,6.71428571 L76.1428571,6.71428571 C77.0327425,6.71428571 77.8028241,7.03943127 78.453125,7.68973214 C79.1034259,8.34003301 79.4285714,9.1101146 79.4285714,10 Z"/>
    <rect width="72" height="65" x="3" y="12" fill="#5C9CF7"/>
    <rect width="28" height="10" x="8.8" y="15" fill="#FFFFFF" rx="2"/>
  </g>
</svg>
