<svg xmlns="http://www.w3.org/2000/svg" width="80" height="80" viewBox="0 0 80 80">
  <path fill="#5C9CF7" fill-rule="evenodd" d="M114.714286,63.1428571 L114.714286,10.5714286 C114.714286,10.0922595 114.560269,9.69866225 114.252232,9.390625 C113.944195,9.08258775 113.550598,8.92857143 113.071429,8.92857143 L88.4285714,8.92857143 C87.9494024,8.92857143 87.5558051,9.08258775 87.2477679,9.390625 C86.9397306,9.69866225 86.7857143,10.0922595 86.7857143,10.5714286 L86.7857143,63.1428571 C86.7857143,63.6220262 86.9397306,64.0156235 87.2477679,64.3236607 C87.5558051,64.631698 87.9494024,64.7857143 88.4285714,64.7857143 L113.071429,64.7857143 C113.550598,64.7857143 113.944195,64.631698 114.252232,64.3236607 C114.560269,64.0156235 114.714286,63.6220262 114.714286,63.1428571 Z M149.214286,43.4285714 L149.214286,10.5714286 C149.214286,10.0922595 149.060269,9.69866225 148.752232,9.390625 C148.444195,9.08258775 148.050598,8.92857143 147.571429,8.92857143 L122.928571,8.92857143 C122.449402,8.92857143 122.055805,9.08258775 121.747768,9.390625 C121.439731,9.69866225 121.285714,10.0922595 121.285714,10.5714286 L121.285714,43.4285714 C121.285714,43.9077405 121.439731,44.3013377 121.747768,44.609375 C122.055805,44.9174123 122.449402,45.0714286 122.928571,45.0714286 L147.571429,45.0714286 C148.050598,45.0714286 148.444195,44.9174123 148.752232,44.609375 C149.060269,44.3013377 149.214286,43.9077405 149.214286,43.4285714 Z M157.428571,4 L157.428571,76.2857143 C157.428571,77.1755997 157.103426,77.9456813 156.453125,78.5959821 C155.802824,79.246283 155.032743,79.5714286 154.142857,79.5714286 L81.8571429,79.5714286 C80.9672575,79.5714286 80.1971759,79.246283 79.546875,78.5959821 C78.8965741,77.9456813 78.5714286,77.1755997 78.5714286,76.2857143 L78.5714286,4 C78.5714286,3.1101146 78.8965741,2.34003301 79.546875,1.68973214 C80.1971759,1.03943127 80.9672575,0.714285714 81.8571429,0.714285714 L154.142857,0.714285714 C155.032743,0.714285714 155.802824,1.03943127 156.453125,1.68973214 C157.103426,2.34003301 157.428571,3.1101146 157.428571,4 Z" transform="translate(-78)"/>
</svg>
